<?xml version="1.0" encoding="utf-8"?>
<!-- Generator: Adobe Illustrator 26.4.1, SVG Export Plug-In . SVG Version: 6.00 Build 0)  -->
<svg version="1.1" id="Layer_1" xmlns="http://www.w3.org/2000/svg" xmlns:xlink="http://www.w3.org/1999/xlink" x="0px" y="0px"
	 viewBox="0 0 60 100" style="enable-background:new 0 0 60 100;" xml:space="preserve">
<style type="text/css">

		.st0{fill:none;stroke:#3C3C3C;stroke-width:2.8653;stroke-linecap:round;stroke-linejoin:round;stroke-miterlimit:8;stroke-dasharray:9.5511,4.7755;}
</style>
	<path id="path242" class="st0" d="M9.2,2.3c2.8-0.2,5.8,0,8.6,0.2c2.6,0.2,6.5,1.5,9.8,1c2.2,0.8,4.4-0.6,6.6,0.4
	c3.2-0.2,6.4-1.9,9.4-1.3c2.9,0.6,5.2,0.8,9,0.6c3.8-0.8,5.5,0.2,5.3,13c-0.1,10.9-0.1,20.1-0.1,28.5c0,15.3,0.7,44.4-0.2,49
	c-1.5,6.7-5.2,1.9-7.3,2.1c-2.1-0.2-4.9,1.9-7,0c-2.4-1.3-4.2,1.3-6.8,0.6c-2.6,0-5-1.5-7.5,0.6c-3.1,1.5-6.9,1-9.8-0.8
	c-2.9-1.7-5.2-0.2-8.1-0.2c-2.4,0-7.7,3.1-8.6,0c-0.9-3.3-0.2-20.9-0.2-27.9C2,51.9,2,40.6,2.3,24c0-2.9-0.6-14.9,0-18.2
	C3.8-0.5,7.2,3.1,9.2,2.3L9.2,2.3z"/>
</svg>
