<?xml version="1.0" encoding="utf-8"?>
<!-- Generator: Adobe Illustrator 26.4.1, SVG Export Plug-In . SVG Version: 6.00 Build 0)  -->
<svg version="1.1" id="Layer_1" xmlns="http://www.w3.org/2000/svg" xmlns:xlink="http://www.w3.org/1999/xlink" x="0px" y="0px"
	 viewBox="0 0 100 100" style="enable-background:new 0 0 100 100;" xml:space="preserve">
<style type="text/css">

		.st0{fill:none;stroke:#3C3C3C;stroke-width:0.7452;stroke-linecap:round;stroke-linejoin:round;stroke-miterlimit:8;stroke-dasharray:1.4839,1.8419;}
</style>
	<path id="path242" class="st0" d="M14.2,2.2C19.1,2,24,2.1,28.9,2.4c4.4,0.2,11.2,1.6,16.8,1.1C49.4,4.3,53.2,2.9,57,4
	c5.4-0.1,10.8-1.8,16.2-1.2c5.1,0.6,8.8,0.8,15.4,0.6c6.5-0.9,9.5,0.2,9,13c-0.3,10.9-0.1,20.2-0.2,28.5c0,15.4,1.2,44.4-0.5,49.1
	c-2.6,6.7-8.7,1.9-12.5,2.1c-3.5-0.3-8.4,2-11.9,0.1c-4.3-1.2-7.2,1.2-11.5,0.5c-4.4,0-8.6-1.5-12.8,0.6c-5.2,1.4-11.7,1.1-16.8-0.9
	c-5.1-1.6-8.7-0.1-13.9-0.2C13.4,95.9,4.4,99.2,3,96C1.4,92.7,2.6,75,2.6,68.2C2.3,51.8,2.1,40.4,2.7,24c0.1-2.9-1-15,0-18.1
	C4.8-0.4,10.8,3.1,14.2,2.2L14.2,2.2z"/>
</svg>
